<?xml version="1.0" encoding="UTF-8" standalone="no"?>
<svg
        width="366pt"
        height="139pt"
        viewBox="0 0 366 139"
        version="1.1"
        id="svg1040"
        xmlns="http://www.w3.org/2000/svg"
>
  <defs
     id="defs953">
    <clipPath
            id="clipPath1885">
      <path
         d="M 0,1388.9844 H 3656.6797 V 2.5e-5 H 0 Z m 0,0"
         id="path1887"
         style="stroke-width:9.99998" />
    </clipPath>
  </defs>
  <path
     style="clip-rule:nonzero;fill:none;stroke:#0c0c0a;stroke-width:26.44;stroke-linecap:butt;stroke-linejoin:miter;stroke-miterlimit:4;stroke-opacity:1"
     d="M 13.203125,13.203125 H 3643.4766 V 1375.7422 H 13.203125 Z m 0,0"
     transform="matrix(0.1,0,0,-0.1,0,139)"
     id="path955"
     clip-path="url(#clipPath1885)" />
  <path
     style="fill:none;stroke:#0c0c0a;stroke-width:1.653;stroke-linecap:butt;stroke-linejoin:miter;stroke-miterlimit:4;stroke-opacity:1"
     d="M 24.320312,99.632813 H 127.16406"
     id="path959" />
  <path
     style="fill:none;stroke:#0c0c0a;stroke-width:1.653;stroke-linecap:butt;stroke-linejoin:miter;stroke-miterlimit:4;stroke-opacity:1"
     d="M 238.50781,99.632813 H 341.34766"
     id="path961" />
  <path
     style="fill:#0c0c0a;fill-opacity:1;stroke:none"
     d="m 56.095276,53.575775 v 1.484375 c 0.875,0.1875 1.4375,0.5 1.8125,1.046875 0.359375,0.5625 0.921875,1.8125 1.671875,3.734375 l 9.171875,23.1875 h 1.546875 l 7.4375,-19.234375 h 0.25 L 84.376526,83.0289 h 1.421875 l 9.609375,-24.875 c 0.4375,-1.171875 0.875,-1.921875 1.3125,-2.28125 0.421875,-0.4375 1.046875,-0.6875 1.796875,-0.8125 v -1.484375 h -8.375 v 1.484375 c 0.984375,0.0625 1.796875,0.25 2.296875,0.5 0.484375,0.3125 0.734375,0.859375 0.734375,1.734375 0,0.1875 0,0.3125 -0.0625,0.5 0,0.171875 -0.0625,0.359375 -0.125,0.609375 L 88.532776,69.87265 84.939026,59.0914 c -0.1875,-0.625 -0.3125,-1.171875 -0.375,-1.546875 -0.0625,-0.4375 -0.125,-0.75 -0.125,-1.0625 0,-0.546875 0.25,-0.921875 0.796875,-1.109375 0.5625,-0.1875 1.25,-0.25 2.109375,-0.3125 v -1.484375 h -14.4375 v 1.484375 c 0.859375,0.125 1.484375,0.25 1.734375,0.375 0.3125,0.125 0.625,0.5 0.921875,1.046875 0.25,0.4375 0.5,1.1875 0.8125,2.234375 0.375,1.125 0.5,1.734375 0.5,1.859375 l -3.96875,10.234375 h -0.1875 L 67.939026,58.6539 c -0.1875,-0.4375 -0.296875,-0.796875 -0.359375,-1.046875 -0.0625,-0.1875 -0.125,-0.4375 -0.125,-0.6875 0,-0.6875 0.25,-1.171875 0.671875,-1.421875 0.4375,-0.25 1.0625,-0.375 1.734375,-0.4375 v -1.484375 z m 0,0"
     id="path884" />
  <path
     style="fill:#0c0c0a;fill-opacity:1;stroke:none"
     d="m 101.37183,44.0914 c 0,1.359375 0.5,2.46875 1.42188,3.40625 0.9375,0.921875 2.04687,1.421875 3.42187,1.421875 1.29688,0 2.40625,-0.5 3.34375,-1.421875 0.92188,-0.9375 1.42188,-2.046875 1.42188,-3.40625 0,-1.3125 -0.5,-2.421875 -1.42188,-3.359375 -0.9375,-0.921875 -2.04687,-1.421875 -3.34375,-1.421875 -1.375,0 -2.48437,0.5 -3.42187,1.421875 -0.92188,0.9375 -1.42188,2.046875 -1.42188,3.359375 z m -2.671871,38.0625 h 14.703121 v -1.484375 c -1.125,-0.25 -1.85937,-0.5625 -2.23437,-0.9375 -0.4375,-0.375 -0.625,-1.234375 -0.625,-2.59375 v -23.5625 H 98.699959 v 1.484375 c 1.25,0.25 2.046871,0.5625 2.484371,0.984375 0.4375,0.5 0.625,1.375 0.625,2.609375 v 18.296875 c 0,1.421875 -0.3125,2.34375 -0.875,2.90625 -0.42187,0.375 -1.171871,0.625 -2.234371,0.8125 z m 0,0"
     id="path990" />
  <path
     style="fill:#0c0c0a;fill-opacity:1;stroke:none"
     d="m 114.81051,82.1539 h 16.49999 v -1.484375 c -1.79687,-0.1875 -2.98437,-0.5 -3.59374,-1 -0.5625,-0.484375 -0.875,-1.796875 -0.875,-3.84375 v -11.78125 c 0,-1.921875 0.4375,-3.40625 1.24999,-4.390625 0.85938,-1.0625 1.67188,-1.5625 2.53125,-1.5625 0.375,0 1.0625,0.625 1.98438,1.859375 1,1.25 2.10937,1.859375 3.40625,1.859375 1.1875,0 2.10937,-0.359375 2.85937,-1.171875 0.6875,-0.796875 1.04688,-1.796875 1.04688,-2.96875 0,-1.625 -0.48438,-2.796875 -1.54688,-3.609375 -0.98437,-0.796875 -2.17187,-1.234375 -3.40625,-1.234375 -1.73437,0 -3.21875,0.5 -4.53125,1.484375 -1.29687,1.0625 -2.59374,2.359375 -3.90624,4.09375 v -4.828125 h -11.71875 v 1.484375 c 1.3125,0.1875 2.17187,0.5 2.60937,0.9375 0.4375,0.484375 0.6875,1.359375 0.6875,2.65625 v 16.921875 l -0.0625,1.796875 c -0.0625,1.1875 -0.3125,2.046875 -0.75,2.421875 -0.5,0.4375 -1.29687,0.75 -2.48437,0.875 z m 0,0"
     id="path1022" />
  <path
     style="fill:#0c0c0a;fill-opacity:1;stroke:none"
     d="m 143.38198,58.0289 c 0,1.4375 0.5,2.671875 1.5625,3.671875 0.98438,1.046875 2.21875,1.546875 3.65625,1.546875 1.42188,0 2.65625,-0.5 3.65625,-1.546875 1.04688,-1 1.54688,-2.234375 1.54688,-3.671875 0,-1.421875 -0.5,-2.65625 -1.54688,-3.65625 -1,-1.046875 -2.23437,-1.546875 -3.65625,-1.546875 -1.4375,0 -2.67187,0.5 -3.65625,1.546875 -1.0625,1 -1.5625,2.234375 -1.5625,3.65625 z m 0,19.78125 c 0,1.4375 0.5,2.671875 1.5625,3.65625 0.98438,1.0625 2.21875,1.5625 3.71875,1.5625 1.42188,0 2.65625,-0.5 3.65625,-1.5625 1.04688,-0.984375 1.54688,-2.21875 1.54688,-3.65625 0,-1.421875 -0.5,-2.65625 -1.54688,-3.65625 -1,-1.046875 -2.23437,-1.546875 -3.65625,-1.546875 -1.5,0 -2.73437,0.5 -3.71875,1.546875 -1.0625,1 -1.5625,2.234375 -1.5625,3.65625 z m 0,0"
     id="path1018" />
  <path
     style="fill:#0c0c0a;fill-opacity:1;stroke:none"
     d="m 157.02223,82.1539 h 14.76563 v -1.484375 c -1.125,-0.25 -1.92188,-0.5 -2.29688,-0.9375 -0.375,-0.375 -0.5625,-1.234375 -0.5625,-2.59375 v -16.625 c 0,-0.25 0.5625,-0.921875 1.625,-1.984375 1.10938,-1.046875 2.28125,-1.546875 3.59375,-1.546875 1.35938,0 2.28125,0.4375 2.71875,1.359375 0.4375,0.9375 0.6875,2.171875 0.6875,3.71875 v 15.078125 c 0,1.421875 -0.25,2.34375 -0.6875,2.71875 -0.48437,0.375 -1.23437,0.6875 -2.35937,0.8125 V 82.1539 h 14.51562 v -1.484375 c -1.10937,-0.25 -1.85937,-0.5 -2.23437,-0.9375 -0.4375,-0.375 -0.625,-1.234375 -0.625,-2.59375 v -16.625 c 0,-0.375 0.625,-1.046875 1.8125,-2.046875 1.17187,-0.984375 2.28125,-1.484375 3.34375,-1.484375 1.29687,0 2.23437,0.4375 2.71875,1.359375 0.4375,0.875 0.6875,2.109375 0.6875,3.71875 v 15.078125 c 0,1.421875 -0.25,2.28125 -0.6875,2.71875 -0.42188,0.375 -1.23438,0.625 -2.34375,0.8125 V 82.1539 h 14.6875 v -1.484375 c -1.17188,-0.125 -1.98438,-0.375 -2.42188,-0.8125 -0.4375,-0.375 -0.67187,-1.296875 -0.67187,-2.71875 v -15.625 c 0,-2.984375 -0.8125,-5.21875 -2.48438,-6.578125 -1.67187,-1.421875 -3.59375,-2.109375 -5.76562,-2.109375 -2.04688,0 -3.84375,0.625 -5.57813,1.796875 -1.0625,0.75 -2.17187,1.796875 -3.35937,3.234375 h -0.42188 c -0.6875,-1.5 -1.4375,-2.609375 -2.17187,-3.296875 -1.35938,-1.171875 -3.28125,-1.734375 -5.82813,-1.734375 -2.17187,0 -4.15625,0.6875 -6.01562,2.046875 -0.9375,0.75 -1.92188,1.796875 -2.98438,3.09375 v -4.390625 h -11.65625 v 1.484375 c 1.3125,0.1875 2.17188,0.5 2.60938,0.9375 0.4375,0.484375 0.6875,1.359375 0.6875,2.65625 v 18.296875 c 0,1.421875 -0.3125,2.46875 -1,2.96875 -0.42188,0.375 -1.17188,0.625 -2.29688,0.75 z m 0,0"
     id="path994" />
  <path
     style="fill:#0c0c0a;fill-opacity:1;stroke:none"
     d="m 218.41091,78.62265 c -0.75,0 -1.42188,-0.375 -2.04688,-1.0625 -0.625,-0.671875 -0.92187,-1.734375 -0.92187,-3.09375 0,-2.296875 1.04687,-4.15625 3.15625,-5.640625 1.23437,-0.875 2.67187,-1.484375 4.34375,-1.921875 v 9.109375 c -0.6875,0.75 -1.25,1.296875 -1.73438,1.671875 -0.875,0.625 -1.8125,0.9375 -2.79687,0.9375 z m -12.03125,-2.296875 c 0,2.296875 0.75,3.96875 2.23437,5.078125 1.42188,1.0625 3.03125,1.625 4.71875,1.625 1.29688,0 2.59375,-0.25 3.90625,-0.6875 2.15625,-0.6875 4.07813,-1.921875 5.76563,-3.65625 0.23437,1.234375 0.60937,2.109375 1.10937,2.71875 0.8125,1.0625 2.17188,1.625 4.03125,1.625 0.98438,0 1.98438,-0.1875 2.90625,-0.5625 1.5,-0.5625 2.79688,-1.546875 4.03125,-2.984375 l -0.92187,-1.296875 c -0.4375,0.4375 -0.6875,0.6875 -0.875,0.75 -0.25,0.125 -0.42188,0.1875 -0.67188,0.1875 -0.3125,0 -0.5625,-0.1875 -0.75,-0.5 -0.25,-0.3125 -0.375,-0.6875 -0.375,-1.125 v -15.0625 c 0,-3.65625 -1.17187,-6.203125 -3.53125,-7.5625 -2.35937,-1.359375 -5.26562,-2.046875 -8.79687,-2.046875 -3.23438,0 -6.01563,0.6875 -8.25,2.109375 -2.23438,1.359375 -3.34375,3.21875 -3.34375,5.640625 0,1.296875 0.42187,2.359375 1.23437,3.046875 0.875,0.671875 1.85938,1.046875 3.03125,1.046875 1.0625,0 1.98438,-0.3125 2.73438,-0.921875 0.8125,-0.6875 1.17187,-1.5625 1.17187,-2.734375 0,-0.5 -0.0625,-0.9375 -0.25,-1.296875 -0.17187,-0.4375 -0.42187,-0.8125 -0.67187,-1.1875 l -0.375,-0.4375 c -0.1875,-0.171875 -0.3125,-0.296875 -0.375,-0.484375 -0.0625,-0.1875 -0.125,-0.375 -0.125,-0.625 0,-0.625 0.375,-1.109375 1.125,-1.546875 0.67187,-0.4375 1.60937,-0.625 2.71875,-0.625 1.98437,0 3.35937,0.4375 4.09375,1.296875 0.8125,0.875 1.1875,2.234375 1.1875,4.09375 v 4.53125 c -5.76563,1.671875 -9.98438,3.28125 -12.65625,4.953125 -2.67188,1.625 -4.03125,3.84375 -4.03125,6.640625 z m 0,0"
     id="path1038" />
  <path
     style="fill:#0c0c0a;fill-opacity:1;stroke:none"
     d="m 234.89527,82.1539 h 16.5 v -1.484375 c -1.79687,-0.1875 -2.98437,-0.5 -3.59375,-1 -0.5625,-0.484375 -0.875,-1.796875 -0.875,-3.84375 v -11.78125 c 0,-1.921875 0.4375,-3.40625 1.25,-4.390625 0.85938,-1.0625 1.67188,-1.5625 2.53125,-1.5625 0.375,0 1.0625,0.625 1.98438,1.859375 1,1.25 2.10937,1.859375 3.40625,1.859375 1.1875,0 2.10937,-0.359375 2.85937,-1.171875 0.6875,-0.796875 1.04688,-1.796875 1.04688,-2.96875 0,-1.625 -0.48438,-2.796875 -1.54688,-3.609375 -0.98437,-0.796875 -2.17187,-1.234375 -3.40625,-1.234375 -1.73437,0 -3.21875,0.5 -4.53125,1.484375 -1.29687,1.0625 -2.59375,2.359375 -3.90625,4.09375 v -4.828125 h -11.71875 v 1.484375 c 1.3125,0.1875 2.17188,0.5 2.60938,0.9375 0.4375,0.484375 0.6875,1.359375 0.6875,2.65625 v 16.921875 l -0.0625,1.796875 c -0.0625,1.1875 -0.3125,2.046875 -0.75,2.421875 -0.5,0.4375 -1.29688,0.75 -2.48438,0.875 z m 0,0"
     id="path1046" />
  <path
     style="fill:#0c0c0a;fill-opacity:1;stroke:none"
     d="m 258.50738,82.1539 h 14.76563 v -1.484375 c -1.42188,-0.1875 -2.29688,-0.5 -2.67188,-1 -0.3125,-0.421875 -0.48437,-1.359375 -0.48437,-2.71875 V 69.87265 l 1.35937,-1.484375 5.89063,8.3125 c 0.60937,0.921875 1.04687,1.609375 1.23437,1.984375 0.1875,0.3125 0.25,0.609375 0.25,0.796875 0,0.375 -0.1875,0.6875 -0.625,0.875 -0.42187,0.1875 -1.04687,0.25 -1.92187,0.3125 V 82.1539 h 14.45312 v -1.484375 c -0.375,-0.0625 -0.6875,-0.125 -0.875,-0.25 -0.25,-0.125 -0.42187,-0.375 -0.67187,-0.6875 L 277.17926,63.24765 282.00738,58.4039 c 1.25,-1.296875 2.54688,-2.171875 3.84375,-2.65625 0.75,-0.3125 1.79688,-0.5 3.04688,-0.6875 v -1.484375 h -13.26563 v 1.484375 c 1.29688,0.125 2.23438,0.3125 2.78125,0.5 0.5625,0.1875 0.875,0.609375 0.875,1.234375 0,0.25 -0.125,0.5625 -0.3125,1 -0.1875,0.359375 -0.5625,0.796875 -1,1.296875 l -7.85937,7.875 V 40.24765 h -11.60938 v 1.484375 c 1.125,0.25 1.92188,0.625 2.35938,0.984375 0.4375,0.4375 0.625,1.25 0.625,2.609375 v 31.5625 c 0,1.421875 -0.25,2.296875 -0.6875,2.71875 -0.42188,0.4375 -1.23438,0.8125 -2.29688,1.0625 z m 0,0"
     id="path1054" />
  <path
     style="fill:#0c0c0a;fill-opacity:1;stroke:none"
     d="m 292.99881,56.294525 v 20.15625 c 0,2.796875 1.04687,4.71875 3.15625,5.765625 1.125,0.5625 2.35937,0.8125 3.78125,0.8125 2.60937,0 4.78125,-0.9375 6.51562,-2.859375 0.98438,-1.046875 1.85938,-2.421875 2.60938,-4.15625 l -1.5,-0.734375 c -0.54688,1.046875 -1.04688,1.859375 -1.60938,2.40625 -0.5625,0.5625 -1.23437,0.875 -2.04687,0.875 -0.92188,0 -1.54688,-0.4375 -1.98438,-1.359375 -0.25,-0.625 -0.375,-1.3125 -0.375,-2.171875 V 56.294525 h 5.89063 v -2.71875 h -5.89063 V 43.0914 h -1.54687 c -1.54688,2.359375 -3.28125,4.59375 -5.14063,6.640625 -1,1.046875 -1.98437,2.046875 -3.04687,3.03125 -0.79688,0.6875 -1.48438,1.296875 -2.04688,1.796875 v 1.734375 z m 0,0"
     id="path1014" />
  <path
     style="fill:#0c0c0a;fill-opacity:1;stroke:none"
     d="m 150.63315,99.4355 h 1.39062 c -0.1875,0.9375 -0.84375,1.26563 -1.6875,1.26563 -1.40625,0 -1.90625,-1.04688 -1.90625,-1.937505 0,-0.890625 0.5,-1.921875 1.90625,-1.921875 0.5625,0 1.21875,0.203125 1.45313,0.9375 h 1.73437 c -0.28125,-1.5625 -1.78125,-2.03125 -3.35937,-2.03125 -2.17188,0 -3.39063,1.25 -3.39063,3.015625 0,2.125005 1.29688,3.015625 3.39063,3.015625 0.98437,0 1.84375,-0.23437 2.39062,-0.8125 l 0.20313,0.65625 h 0.79687 v -3.1875 h -2.92187 z m 0,0"
     id="path1010" />
  <path
     style="fill:#0c0c0a;fill-opacity:1;stroke:none"
     d="m 156.27885,101.623 h 5.35938 v -1.09375 h -3.8125 v -1.3125 h 3.59375 V 98.1855 h -3.59375 V 96.998 h 3.78125 v -1.09375 h -5.32813 z m 0,0"
     id="path1042" />
  <path
     style="fill:#0c0c0a;fill-opacity:1;stroke:none"
     d="m 167.72807,99.4355 h 1.39062 c -0.1875,0.9375 -0.84375,1.26563 -1.6875,1.26563 -1.40625,0 -1.90625,-1.04688 -1.90625,-1.937505 0,-0.890625 0.5,-1.921875 1.90625,-1.921875 0.5625,0 1.21875,0.203125 1.45313,0.9375 h 1.73437 c -0.28125,-1.5625 -1.78125,-2.03125 -3.35937,-2.03125 -2.17188,0 -3.39063,1.25 -3.39063,3.015625 0,2.125005 1.29688,3.015625 3.39063,3.015625 0.98437,0 1.84375,-0.23437 2.39062,-0.8125 l 0.20313,0.65625 h 0.79687 v -3.1875 h -2.92187 z m 0,0"
     id="path1030" />
  <path
     style="fill:#0c0c0a;fill-opacity:1;stroke:none"
     d="m 174.92183,96.998 h 1.98437 c 0.375,0 0.8125,0.140625 0.8125,0.71875 0,0.53125 -0.39062,0.71875 -0.73437,0.71875 h -2.0625 z m -1.54688,4.625 h 1.54688 v -2.09375 h 1.9375 c 0.46875,0 0.8125,0.203125 0.8125,1 0,0.59375 0.0156,0.82813 0.15625,1.09375 h 1.70312 c -0.28125,-0.28125 -0.29687,-0.95312 -0.29687,-1.23437 0,-0.562505 -0.10938,-1.42188 -0.79688,-1.531255 v -0.01563 c 0.65625,-0.234375 0.9375,-0.6875 0.9375,-1.375 0,-0.59375 -0.26562,-1.5625 -1.84375,-1.5625 h -4.15625 z m 0,0"
     id="path1002" />
  <path
     style="fill:#0c0c0a;fill-opacity:1;stroke:none"
     d="m 182.08316,101.623 h 1.54688 v -1.35937 h -1.54688 z m 0,0"
     id="path1050" />
  <path
     style="fill:#0c0c0a;fill-opacity:1;stroke:none"
     d="m 192.52339,100.52925 c 0.23437,-0.32812 0.67187,-0.5 1.01562,-0.625 l 0.64063,-0.203125 c 1.53125,-0.46875 2.39062,-0.828125 2.39062,-1.921875 0,-0.90625 -0.70312,-1.859375 -2.71875,-1.859375 -1.51562,0 -2.8125,0.5 -2.875,2.09375 h 1.59375 c 0.0937,-0.796875 0.71875,-1.046875 1.34375,-1.046875 0.67188,0 1.0625,0.3125 1.0625,0.78125 0,1.375 -4,0.546875 -4.14062,3.875 h 5.70312 v -1.09375 z m 0,0"
     id="path1026" />
  <path
     style="fill:#0c0c0a;fill-opacity:1;stroke:none"
     d="m 200.41557,98.84175 c 0,-1 0.35937,-1.875 1.42187,-1.875 1.0625,0 1.42188,0.875 1.42188,1.875 0,1 -0.35938,1.89063 -1.42188,1.89063 -1.0625,0 -1.42187,-0.89063 -1.42187,-1.89063 z m -1.5,0 c 0,1.875 1.04687,2.92188 2.92187,2.92188 1.95313,0 2.92188,-1.17188 2.92188,-2.92188 0,-1.859375 -1.04688,-2.921875 -2.92188,-2.921875 -1.875,0 -2.92187,1.0625 -2.92187,2.921875 z m 0,0"
     id="path998" />
  <path
     style="fill:#0c0c0a;fill-opacity:1;stroke:none"
     d="m 208.64331,100.52925 c 0.23438,-0.32812 0.67188,-0.5 1.01563,-0.625 l 0.64062,-0.203125 c 1.53125,-0.46875 2.39063,-0.828125 2.39063,-1.921875 0,-0.90625 -0.70313,-1.859375 -2.71875,-1.859375 -1.51563,0 -2.8125,0.5 -2.875,2.09375 h 1.59375 c 0.0937,-0.796875 0.71875,-1.046875 1.34375,-1.046875 0.67187,0 1.0625,0.3125 1.0625,0.78125 0,1.375 -4,0.546875 -4.14063,3.875 h 5.70313 v -1.09375 z m 0,0"
     id="path1006" />
  <path
     style="fill:#0c0c0a;fill-opacity:1;stroke:none"
     d="m 216.68471,101.623 h 1.46875 v -5.546875 h -1.14063 c -0.3125,0.890625 -0.76562,0.984375 -2,1.015625 v 0.984375 h 1.67188 z m 0,0"
     id="path1034" />
</svg>
